<?xml version="1.0" encoding="utf-8"?>
<!-- Generator: Adobe Illustrator 14.0.0, SVG Export Plug-In . SVG Version: 6.00 Build 43363)  -->
<!DOCTYPE svg PUBLIC "-//W3C//DTD SVG 1.1//EN" "http://www.w3.org/Graphics/SVG/1.1/DTD/svg11.dtd">
<svg version="1.1" xmlns="http://www.w3.org/2000/svg" xmlns:xlink="http://www.w3.org/1999/xlink" x="0px" y="0px" width="55px"
	 height="55px" viewBox="0 0 170 170" style="enable-background:new 0 0 170 170;" xml:space="preserve">
<style type="text/css">
<![CDATA[
	.st0{fill:#F2B938;}
	.st1{fill:none;stroke:#F2B938;stroke-width:10;stroke-dasharray:550;}
]]>
 <!-- .st1{
	 opacity:0;
	 stroke-dashArray:500px;
 }
.st1{animation: moveSt1 3s forwards linear}
@keyframes moveSt1{
	0%{stroke-dashoffset:500px;
	opacity:1;}
	100%{stroke-dashArray:500px;
	opacity:1;}
}
.st0{
	opacity:0;
}
.st0{animation: moveSt0 1s forwards; animation-delay:3s}
@keyframes moveSt0{
	
	100%{opacity:1}
}
svg{animation:moveSvg 2.5s forwards; animation-delay:4s}
@keyframes moveSvg{
	0%{opacity:1}
	100%{opacity:0}
} -->
</style>
<g id="logo">
	
		<rect x="38.331" y="38.331" transform="matrix(0.7071 0.7071 -0.7071 0.7071 85.0001 -35.2083)" class="st1" width="93.338" height="93.338"/>
</g>
<g id="letter">
	<path class="st0" d="M95.903,64.277v28.487c0,1.758-0.263,3.426-0.784,5.005c-0.523,1.58-1.319,2.955-2.384,4.126
		c-1.067,1.172-2.406,2.102-4.018,2.793c-1.61,0.689-3.505,1.034-5.679,1.034c-0.815,0-1.647-0.058-2.495-0.171
		c-0.847-0.117-1.662-0.271-2.446-0.472c-0.784-0.199-1.521-0.439-2.212-0.722s-1.287-0.591-1.789-0.925v-5.617
		c1.298,0.941,2.734,1.685,4.315,2.229c1.578,0.544,3.142,0.814,4.69,0.814c2.279,0,4.036-0.694,5.271-2.085
		c1.234-1.392,1.852-3.395,1.852-6.01V69.108H74.631v-4.831H95.903z"/>
</g>
</svg>
