<?xml version="1.0" encoding="utf-8"?>
<!-- Generator: Adobe Illustrator 14.0.0, SVG Export Plug-In . SVG Version: 6.00 Build 43363)  -->
<!DOCTYPE svg PUBLIC "-//W3C//DTD SVG 1.1//EN" "http://www.w3.org/Graphics/SVG/1.1/DTD/svg11.dtd">
<svg version="1.1" id="레이어_1" xmlns="http://www.w3.org/2000/svg" xmlns:xlink="http://www.w3.org/1999/xlink" x="0px"
	 y="0px" width="1600px" height="1100px" viewBox="0 0 1600 1100" style="enable-background:new 0 0 1100 900;" xml:space="preserve">
<style type="text/css">
<![CDATA[
	.st0{fill:#FFFFFF;}
]]>
path.st0:nth-child(2){ width:1600px}
.st0{ width: 1600px;
 position:absolute;
 top: 0;
left: 0;
z-index: 5;
transform: scale(1.1)
}

</style>
<g>
	<path class="st0" d="M915.381,426.069c3.71-0.439,6.629-1.721,8.752-3.845c2.125-2.124,3.187-4.918,3.187-8.386
		c0-3.32-0.915-6.017-2.747-8.093c-1.83-2.075-4.553-3.333-8.166-3.772c-2.149-0.244-8.326-0.366-18.53-0.366h-12.451v24.829h14.209
		C908.08,426.436,913.33,426.314,915.381,426.069z"/>
	<polygon class="st0" points="782.959,448.628 812.256,448.628 797.461,408.784 	"/>
	<path class="st0" d="M922.156,445.845c-2.955-1.025-9.364-1.538-19.227-1.538h-17.505v28.711h20.068
		c7.812,0,12.769-0.22,14.868-0.659c3.223-0.586,5.847-2.015,7.873-4.284c2.025-2.271,3.04-5.311,3.04-9.119
		c0-3.223-0.782-5.957-2.344-8.203C927.367,448.507,925.109,446.87,922.156,445.845z"/>
	<path class="st0" d="M0,0v910h1500V0H0z M385.547,491.108l-38.379-107.373h23.511l27.173,79.468l26.294-79.468h22.998
		l-38.452,107.373H385.547z M520.313,491.108l-9.375-24.39h-42.92l-8.862,24.39h-22.998l41.821-107.373h22.925l42.993,107.373
		H520.313z M631.567,491.108h-75.586V384.614h21.68v88.403h53.906V491.108z M732.495,440.132c0,12.891-0.586,21.998-1.758,27.319
		c-1.172,5.322-3.333,9.814-6.482,13.477s-7.361,6.58-12.634,8.752s-12.158,3.26-20.654,3.26c-10.254,0-18.03-1.185-23.328-3.553
		c-5.299-2.367-9.485-5.443-12.561-9.229c-3.076-3.783-5.103-7.75-6.079-11.901c-1.417-6.152-2.124-15.234-2.124-27.246v-57.275
		h21.68v58.154c0,9.229,0.268,15.21,0.806,17.944c0.927,4.395,3.137,7.923,6.628,10.584c3.49,2.662,8.264,3.991,14.319,3.991
		c6.152,0,10.791-1.257,13.916-3.772c3.124-2.514,5.004-5.603,5.64-9.265c0.634-3.662,0.952-9.741,0.952-18.237v-59.399h21.68
		V440.132z M828.589,491.108l-9.375-24.39h-42.92l-8.862,24.39h-22.998l41.821-107.373h22.925l42.993,107.373H828.589z
		 M950.281,474.227c-2.271,4.613-5.373,8.301-9.303,11.059c-3.931,2.76-8.777,4.457-14.538,5.091
		c-3.614,0.392-12.33,0.636-26.147,0.732h-36.548V383.735h42.92c8.496,0,14.831,0.355,19.007,1.062
		c4.174,0.708,7.91,2.186,11.205,4.431c3.297,2.247,6.043,5.237,8.24,8.972s3.296,7.923,3.296,12.561
		c0,5.03-1.354,9.644-4.065,13.843c-2.709,4.2-6.385,7.35-11.022,9.448c6.542,1.904,11.572,5.152,15.088,9.741
		c3.516,4.59,5.273,9.986,5.273,16.187C953.687,464.863,952.551,469.611,950.281,474.227z M1048.169,491.108h-75.586V384.614h21.68
		v88.403h53.906V491.108z M1145.288,491.108h-81.665V383.735h79.614v18.164h-57.935v23.804h53.906v18.091h-53.906v29.224h59.985
		V491.108z"/>
	<polygon class="st0" points="474.683,448.628 503.979,448.628 489.185,408.784 	"/>
</g>
</svg>
