<?xml version="1.0" encoding="utf-8"?>
<!-- Generator: Adobe Illustrator 14.0.0, SVG Export Plug-In . SVG Version: 6.00 Build 43363)  -->
<!DOCTYPE svg PUBLIC "-//W3C//DTD SVG 1.1//EN" "http://www.w3.org/Graphics/SVG/1.1/DTD/svg11.dtd">
<svg version="1.1" xmlns="http://www.w3.org/2000/svg" xmlns:xlink="http://www.w3.org/1999/xlink" x="0px" y="0px" width="120px"
	 height="120px" viewBox="0 0 512 512" enable-background="new 0 0 512 512" xml:space="preserve">
<style>
.st0{stroke-dashArray:80px}
.st1{stroke-dashArray:150px}
.st2{stroke-dashArray:880px}
.st3{stroke-dashArray:300px}
.st4{stroke-dashArray:400px}
.st5{stroke-dashArray:200px}
svg:hover .st0{animation: moveSt0 1.6s forwards}
@keyframes moveSt0{
	0%{stroke-dashoffset:80px;}
	100%{stroke-dashArray:80px;}
}
svg:hover .st1{animation: moveSt1 1.6s forwards}
@keyframes moveSt1{
	0%{stroke-dashoffset:150px;}
	100%{stroke-dashArray:150px;}
}
svg:hover .st2{animation: moveSt2 1.6s forwards}
@keyframes moveSt2{
	0%{stroke-dashoffset:880px;}
	100%{stroke-dashArray:880px;}
}
svg:hover .st3{animation: moveSt3 1.6s forwards}
@keyframes moveSt3{
	0%{stroke-dashoffset:300px;}
	100%{stroke-dashArray:300px;}
}
svg:hover .st4{animation: moveSt3 1.6s forwards}
@keyframes moveSt3{
	0%{stroke-dashoffset:400px;}
	100%{stroke-dashArray:400px;}
}
svg:hover .st5{animation: moveSt3 1.6s forwards}
@keyframes moveSt3{
	0%{stroke-dashoffset:500px;}
	100%{stroke-dashArray:500px;}
}
</style>
<g id="halfRound">
	<g>
		<path class="st4" fill="none" stroke="#fcbe32" stroke-width="8" stroke-linecap="round" stroke-linejoin="round" d="M197.022,265.689
			c-21.099-27.826-28.925-66.232-13.116-98.647c5.078-10.412,16.181-21.336,25.021-28.614
			c31.797-26.177,81.972-19.802,107.788,11.706c8.85,10.801,19.159,27.099,22.237,40.896c6.062,27.172-6.956,54.094-23.839,74.66"/>
		<path class="st3" fill="none" stroke="#fcbe32" stroke-width="8" stroke-linecap="round" stroke-linejoin="round" d="M214.15,247.363
			c-14.98-19.756-20.537-47.025-9.313-70.04c3.605-7.393,11.488-15.148,17.765-20.316c22.576-18.586,58.201-14.06,76.529,8.311
			c6.283,7.669,13.604,19.24,15.789,29.036c4.304,19.292-4.939,38.407-16.926,53.009"/>
		<path class="st6"  fill="none" stroke="#fcbe32" stroke-width="8" stroke-linecap="round" stroke-linejoin="round" d="M230.085,231.452
			c-9.288-12.249-12.733-29.155-5.774-43.425c2.235-4.583,7.123-9.392,11.015-12.596c13.997-11.523,36.084-8.717,47.447,5.153
			c3.896,4.755,8.435,11.929,9.79,18.002c2.668,11.961-3.063,23.813-10.494,32.866"/>
	</g>
</g>
<g id="hand">
	<g>
		<path class="st2" fill="none" stroke="#fcbe32" stroke-width="9" stroke-linecap="round" stroke-linejoin="round" d="M243.422,294.276v-93.689
			c0,0,1.953-12.923,12.5-12.191s12.122,12.191,12.122,12.191v1.309l0.284,85.5l0.076,22.816c0,0-4.214-34.012,12.402-32.914
			c0,0,11.451,0.711,11.926,9.654c0.079,1.497,0.146,3.174,0.2,4.928c0.274,8.727,0.274,19.375,0.274,19.375
			s-6.667-35.369,12.401-33.957c0,0,9.494,0.919,11.868,8.651c0.339,1.104,0.532,2.349,0.532,3.748c0,11.198,0,21.558,0,21.558
			s-4.111-34.055,12.401-33.957c0,0,12.4,0.201,12.4,12.399s1.127,86.698,1.127,86.698s-2.869,17.966-10.194,26
			s-4.32,25.872-4.32,25.872H256.85c0,0,2.268-10.872-6.58-25.872s-8.848-15-8.848-15l-17-39.5c0,0-4.617-6.211,3.941-24.105
			S243.422,294.276,243.422,294.276z"/>
		
			<rect class="st3" x="243.075" y="428.372" fill="none" stroke="#fcbe32" stroke-width="9" stroke-linecap="round" stroke-linejoin="round" width="100.388" height="41.604"/>
	</g>
</g>
<g id="deco">
	<g>
		<g>
			
				<line class="st0" fill="none" stroke="#fcbe32" stroke-width="9" stroke-linecap="round" stroke-linejoin="round" x1="256" y1="107" x2="256" y2="80.786"/>
			
				<circle class="st1" fill="none" stroke="#fcbe32" stroke-width="9" stroke-linecap="round" stroke-linejoin="round" cx="256.075" cy="53.357" r="22.643"/>
		</g>
		<g>
			
				<line class="st0" fill="none"  stroke="#fcbe32" stroke-width="9" stroke-linecap="round" stroke-linejoin="round" x1="383.96" y1="208.744" x2="356.5" y2="208.744"/>
			
				<circle class="st1" fill="none" stroke="#fcbe32" stroke-width="9" stroke-linecap="round" stroke-linejoin="round" cx="411.518" cy="208.744" r="22.643"/>
		</g>
		<g>
			
				<line class="st0" fill="none" stroke="#fcbe32" stroke-width="9" stroke-linecap="round" stroke-linejoin="round" x1="155.5" y1="208.744" x2="128.04" y2="208.744"/>
			
				<circle class="st1" fill="none" stroke="#fcbe32" stroke-width="9" stroke-linecap="round" stroke-linejoin="round" cx="100.484" cy="208.744" r="22.643"/>
		</g>
	</g>
</g>
<g id="square">
	<path class="st1" fill="none" stroke="#fcbe32" stroke-width="9" stroke-linecap="round" stroke-linejoin="round" d="M356.5,208.744"/>
	
		<rect class="st1" x="152.579" y="278.581" transform="matrix(0.7206 0.6933 -0.6933 0.7206 251.146 -34.4983)" fill="none" stroke="#fcbe32" stroke-width="8" stroke-linecap="round" stroke-linejoin="round" width="31.601" height="31.601"/>
	
		<rect class="st1" x="152.579" y="105.323" transform="matrix(0.7206 0.6933 -0.6933 0.7206 131.0165 -82.9024)" fill="none" stroke="#fcbe32" stroke-width="8" stroke-linecap="round" stroke-linejoin="round" width="31.601" height="31.601"/>
	
		<rect class="st1" x="328.215" y="105.321" transform="matrix(0.7206 0.6933 -0.6933 0.7206 180.0746 -204.6709)" fill="none" stroke="#fcbe32" stroke-width="8" stroke-linecap="round" stroke-linejoin="round" width="31.601" height="31.602"/>
</g>
</svg>
