<?xml version="1.0" encoding="utf-8"?>
<!-- Generator: Adobe Illustrator 14.0.0, SVG Export Plug-In . SVG Version: 6.00 Build 43363)  -->
<!DOCTYPE svg PUBLIC "-//W3C//DTD SVG 1.1//EN" "http://www.w3.org/Graphics/SVG/1.1/DTD/svg11.dtd">
<svg version="1.1" id="letter" xmlns="http://www.w3.org/2000/svg" xmlns:xlink="http://www.w3.org/1999/xlink" x="0px" y="0px"
	 width="1700px" height="900px" viewBox="0 0 1700 900" style="enable-background:new 0 0 1700 900;" xml:space="preserve">
<style type="text/css">
<![CDATA[
	.st0{fill:#0E2341;}
]]>
</style>
<path class="st0" d="M0,0v900h1700V0H0z M307.751,445.466c-8.658,8.036-19.635,12.051-32.933,12.051h-35.425v56.203h-25.557V371.914
	h58.073c16.552,0,28.829,4.173,36.828,12.519c8,8.347,11.999,18.198,11.999,29.556C320.737,426.94,316.408,437.433,307.751,445.466z
	 M451.844,513.721h-27.011l-22.024-58.281h-35.945v58.281h-25.557V371.914h61.501c17.106,0,29.676,3.862,37.711,11.583
	c8.033,7.724,12.051,17.713,12.051,29.972c0,18.216-8.519,30.75-25.556,37.607L451.844,513.721z M572.613,495.695
	c-11.116,13.473-25.852,20.207-44.205,20.207c-18.839,0-33.503-7.064-43.996-21.193s-15.739-31.582-15.739-52.359
	c0-20.638,5.574-37.901,16.726-51.788c11.15-13.885,25.868-20.83,44.152-20.83c18.422,0,32.984,6.944,43.685,20.83
	c10.701,13.887,16.051,31.254,16.051,52.1C589.287,464.547,583.729,482.227,572.613,495.695z M710.627,493.463
	c-12.051,13.504-29.296,20.258-51.736,20.258H612.35V371.914h52.255c19.323,0,34.836,6.84,46.542,20.518
	c11.704,13.679,17.557,30.561,17.557,50.645C728.704,463.162,722.678,479.957,710.627,493.463z M849.733,463.023
	c0,12.328-1.387,21.816-4.155,28.465c-2.771,6.648-8.121,12.381-16.051,17.193c-7.932,4.814-17.609,7.221-29.037,7.221
	c-11.567,0-21.073-2.078-28.517-6.234c-7.446-4.154-12.796-9.852-16.051-17.09c-3.256-7.236-4.883-16.465-4.883-27.686v-92.979
	h26.076v91.11c0,12.467,2.613,20.656,7.843,24.568c5.229,3.914,11.306,5.871,18.232,5.871c7.963,0,14.336-2.096,19.115-6.285
	c4.779-4.189,7.169-12.242,7.169-24.154v-91.11h20.258V463.023z M907.599,481.256c5.679,8.762,13.194,13.141,22.544,13.141
	c7.479,0,13.851-2.941,19.115-8.83c5.263-5.885,8.241-12.916,8.935-21.088l23.687,2.596c-1.524,14.199-7.013,25.887-16.467,35.063
	c-9.453,9.178-21.868,13.766-37.243,13.766c-12.952,0-23.463-3.256-31.53-9.766c-8.069-6.51-14.284-15.34-18.647-26.492
	c-4.363-11.15-6.545-23.441-6.545-36.879c0-21.609,5.124-39.182,15.375-52.723c10.249-13.54,24.344-20.31,42.282-20.31
	c14.059,0,25.765,4.329,35.114,12.986c9.35,8.659,15.235,21.055,17.661,37.192l-23.687,2.493
	c-4.363-21.401-13.991-32.101-28.881-32.101c-9.558,0-16.985,4.451-22.284,13.35c-5.298,8.9-7.947,21.8-7.947,38.698
	C899.08,459.527,901.919,472.494,907.599,481.256z M1089.402,393.834h-37.711v119.887h-27.427V393.834h-37.711v-21.92h102.849
	V393.834z M1130.542,513.721h-25.557V371.914h25.557V513.721z M1216.249,513.721h-25.972l-43.736-141.807h27.011l32.517,108.667
	l33.244-108.667h21.297L1216.249,513.721z M1302.269,513.721h-25.557V371.914h25.557V513.721z M1420.7,393.834h-37.711v119.887
	h-27.427V393.834h-37.711v-21.92H1420.7V393.834z M1502.252,453.881v59.84h-27.114v-59.84l-48.308-81.967h30.958l33.66,58.489
	l32.205-58.489h24.518L1502.252,453.881z"/>
<path class="st0" d="M662.943,392.067h-24.31v100.771h21.297c11.428,0,21.123-4.293,29.088-12.882
	c7.964-8.587,11.947-21.364,11.947-38.334c0-13.851-3.48-25.572-10.441-35.166C683.564,396.864,674.371,392.067,662.943,392.067z"/>
<path class="st0" d="M529.136,390.301c-21.886,0-32.829,17.627-32.829,52.879c0,17.108,2.787,30.076,8.363,38.906
	c5.574,8.83,13.558,13.246,23.946,13.246c9.21,0,17.002-3.809,23.375-11.428c6.372-7.618,9.558-21.435,9.558-41.452
	c0-16.274-2.633-29.036-7.895-38.282C548.389,394.924,540.216,390.301,529.136,390.301z"/>
<path class="st0" d="M419.327,398.041c-4.433-3.844-10.632-5.766-18.596-5.766h-33.867v42.698h31.79
	c9.21,0,16.067-1.938,20.57-5.818c4.501-3.878,6.752-9.21,6.752-15.999C425.976,406.923,423.758,401.885,419.327,398.041z"/>
<path class="st0" d="M267.339,393.106h-27.946v42.49h30.231c7.896,0,13.921-1.938,18.077-5.818
	c4.155-3.878,6.233-9.038,6.233-15.479c0-5.818-1.922-10.804-5.766-14.96C284.325,395.184,277.38,393.106,267.339,393.106z"/>
</svg>
