<?xml version="1.0" encoding="utf-8"?>
<!-- Generator: Adobe Illustrator 14.0.0, SVG Export Plug-In . SVG Version: 6.00 Build 43363)  -->
<!DOCTYPE svg PUBLIC "-//W3C//DTD SVG 1.1//EN" "http://www.w3.org/Graphics/SVG/1.1/DTD/svg11.dtd">
<svg version="1.1" xmlns="http://www.w3.org/2000/svg" xmlns:xlink="http://www.w3.org/1999/xlink" x="0px" y="0px" width="120px"
	 height="120px" viewBox="0 0 300 300" style="enable-background:new 0 0 300 300;" xml:space="preserve">
<style type="text/css">
<![CDATA[
	.st0{
		fill:none;
		stroke:#fcbe32;
		stroke-width:5;
		stroke-linecap:round;
		stroke-linejoin:round;
		stroke-dashArray:600px;
		}
	.st1{
		fill:#001234;
		stroke:#fcbe32;
		stroke-width:5;
		stroke-dashArray:350px;}
	.st2{fill:#001234;}
	.st3{fill:#001234;stroke:#fcbe32;stroke-width:5;stroke-dashArray:300px}
	.st4{fill:none;stroke:#fcbe32;stroke-width:5;stroke-dashArray:90px}
]]>

svg:hover .st0{animation:moveSt0 1.1s forwards;animation-timing-function: linear;}
svg:hover .st1{animation:moveSt1 1.1s forwards;animation-timing-function: linear;}
svg:hover .st2{animation:moveSt2 1.1s forwards;animation-timing-function: linear;}
svg:hover .st3{animation:moveSt3 1.1s forwards;animation-timing-function: linear;}
svg:hover .st4{animation:moveSt4 .5s forwards;animation-timing-function: linear;}
@keyframes moveSt0{
	0%{stroke-dashoffset:600px;}
	100%{stroke-dashArray:600px;}
}
@keyframes moveSt1{
	0%{stroke-dashoffset:350px;}
	100%{stroke-dashArray:350px;}
}
@keyframes moveSt2{
	0%{opacity:0}
	98%{opacity:0}
	100%{opacity:1;}
}
@keyframes moveSt3{
	0%{stroke-dashoffset:300px;}
	100%{stroke-dashArray:300px;}
}
@keyframes moveSt4{
	0%{stroke-dashoffset:90px;}
	100%{stroke-dashArray:90px;}
}


</style>
<g id="labtop">
	<g>
		<path class="st0" d="M38.765,42.829h139.251c0,0,20.859,2.097,20.859,16.219c0,14.121,0,104.193,0,104.193H43.382
			c0,0-14.759,2.333-15.233-11.415c-0.474-13.749,0-88.037,0-88.037S26.19,42.829,38.765,42.829z"/>
		<line class="st0" x1="28.149" y1="63.789" x2="140.565" y2="63.789"/>
		<path class="st0" d="M83.939,105.146c0,2.618-2.123,4.741-4.741,4.741H46.725c-2.618,0-4.741-2.123-4.741-4.741V84.871
			c0-2.618,2.123-4.741,4.741-4.741h32.474c2.618,0,4.741,2.123,4.741,4.741V105.146z"/>
		<path class="st0" d="M141.731,120.023c0,2.618-2.123,4.741-4.741,4.741h-32.474c-2.618,0-4.741-2.123-4.741-4.741V99.749
			c0-2.618,2.123-4.741,4.741-4.741h32.474c2.618,0,4.741,2.123,4.741,4.741V120.023z"/>
		<line class="st0" x1="28.149" y1="140.881" x2="198.876" y2="140.881"/>
		<line class="st0" x1="102.64" y1="163.241" x2="93.159" y2="191.685"/>
		<line class="st0" x1="117.811" y1="163.241" x2="127.292" y2="191.685"/>
		<line class="st0" x1="73.281" y1="191.685" x2="147.382" y2="191.685"/>
	</g>
	<line class="st0" x1="176.531" y1="63.984" x2="194.15" y2="63.984"/>
	<circle class="st2" cx="159.988" cy="63.79" r="4.21"/>
</g>
<g id="tablet">
	<g>
		<path class="st1" d="M227.517,213.415c0,10.404-4.267,18.84-9.53,18.84h-65.29c-5.264,0-9.531-8.436-9.531-18.84v-80.569
			c0-10.404,4.268-18.838,9.531-18.838h65.29c5.264,0,9.53,8.434,9.53,18.838V213.415z"/>
		<line class="st1" x1="143.165" y1="136.761" x2="227.517" y2="136.761"/>
		<line class="st1" x1="143.165" y1="207.319" x2="225.396" y2="207.319"/>
		<path class="st1" d="M191.264,169.078c0,2.183-1.769,3.951-3.95,3.951h-27.067c-2.182,0-3.951-1.769-3.951-3.951v-16.897
			c0-2.183,1.77-3.951,3.951-3.951h27.067c2.182,0,3.95,1.769,3.95,3.951V169.078z"/>
	</g>
</g>
<g id="phone">
	<g>
		<path class="st3" d="M265.244,210.577c0,1.953-1.584,3.537-3.537,3.537H237.48c-1.954,0-3.537-1.584-3.537-3.537v-15.125
			c0-1.955,1.583-3.537,3.537-3.537h24.227c1.953,0,3.537,1.582,3.537,3.537V210.577z"/>
		<path class="st3" d="M256.41,157.051h-36.48c0,0-13.68,2.86-13.68,12.44c0,9.582,0,69.43,0,69.43s2.28,13.68,10.26,14.25
			c7.98,0.57,39.9,0,39.9,0s8.549-3.42,9.119-12.539c0.57-9.121,0-73.529,0-73.529S264.747,160.629,256.41,157.051z"/>
		<line class="st3" x1="206.25" y1="175.083" x2="263.25" y2="175.083"/>
		<line class="st3" x1="206.25" y1="234.931" x2="263.25" y2="234.931"/>
	</g>
	<path class="st4" d="M264.747,207.718c0,1.652-1.341,2.994-2.994,2.994H241.24c-1.654,0-2.994-1.342-2.994-2.994v-12.807
		c0-1.654,1.34-2.996,2.994-2.996h20.513c1.653,0,2.994,1.342,2.994,2.996V207.718z"/>
</g>
</svg>
