<?xml version="1.0" encoding="utf-8"?>
<!-- Generator: Adobe Illustrator 14.0.0, SVG Export Plug-In . SVG Version: 6.00 Build 43363)  -->
<!DOCTYPE svg PUBLIC "-//W3C//DTD SVG 1.1//EN" "http://www.w3.org/Graphics/SVG/1.1/DTD/svg11.dtd">
<svg version="1.1" id="letter" xmlns="http://www.w3.org/2000/svg" xmlns:xlink="http://www.w3.org/1999/xlink" x="0px" y="0px"
	 width="90%" height="100%" viewBox="0 0 1300 800" style="enable-background:new 0 0 1300 800;" xml:space="preserve">
<style type="text/css">
<![CDATA[
	.st0{fill:#ffffff;}
]]>
g{

}

</style>
<g>
	<path class="st0" d="M7.778,7v680h1284.445V7H7.778z M240.301,343.575c-6.542,6.071-14.835,9.104-24.883,9.104h-26.766v42.465
		h-19.309V288.002h43.877c12.506,0,21.781,3.152,27.826,9.458c6.044,6.306,9.065,13.75,9.065,22.331
		C250.112,329.577,246.842,337.505,240.301,343.575z M349.17,395.145h-20.408l-16.641-44.035h-27.159v44.035h-19.309V288.002h46.468
		c12.924,0,22.422,2.917,28.493,8.752c6.069,5.835,9.105,13.382,9.105,22.645c0,13.764-6.436,23.233-19.31,28.414L349.17,395.145z
		 M440.418,381.525c-8.399,10.18-19.532,15.268-33.399,15.268c-14.234,0-25.313-5.338-33.242-16.013
		c-7.928-10.675-11.892-23.862-11.892-39.561c0-15.593,4.211-28.637,12.638-39.129c8.424-10.491,19.544-15.737,33.359-15.737
		c13.918,0,24.921,5.246,33.006,15.737c8.085,10.492,12.127,23.614,12.127,39.364C453.016,357.991,448.817,371.349,440.418,381.525z
		 M544.696,379.839c-9.104,10.203-22.135,15.306-39.09,15.306h-35.164V288.002h39.481c14.601,0,26.321,5.168,35.165,15.502
		c8.843,10.335,13.266,23.09,13.266,38.265C558.354,356.945,553.801,369.634,544.696,379.839z M649.798,356.84
		c0,9.314-1.048,16.483-3.14,21.507c-2.095,5.023-6.136,9.354-12.127,12.991c-5.993,3.637-13.305,5.455-21.939,5.455
		c-8.739,0-15.922-1.57-21.546-4.71c-5.626-3.139-9.669-7.444-12.127-12.913c-2.46-5.467-3.689-12.439-3.689-20.918v-70.25h19.702
		v68.838c0,9.42,1.975,15.607,5.926,18.563c3.95,2.957,8.542,4.437,13.775,4.437c6.018,0,10.832-1.584,14.442-4.749
		c3.61-3.166,5.416-9.249,5.416-18.25v-68.838h15.307V356.84z M693.52,370.615c4.289,6.62,9.969,9.929,17.033,9.929
		c5.65,0,10.465-2.223,14.441-6.671c3.977-4.447,6.227-9.76,6.75-15.934l17.898,1.961c-1.152,10.729-5.299,19.56-12.441,26.492
		c-7.143,6.934-16.523,10.4-28.141,10.4c-9.785,0-17.727-2.46-23.822-7.378c-6.098-4.919-10.793-11.591-14.09-20.017
		c-3.297-8.425-4.945-17.712-4.945-27.864c0-16.327,3.871-29.604,11.617-39.836c7.744-10.229,18.393-15.345,31.947-15.345
		c10.621,0,19.467,3.271,26.531,9.812c7.063,6.541,11.51,15.907,13.344,28.1l-17.898,1.884c-3.295-16.17-10.57-24.254-21.82-24.254
		c-7.221,0-12.832,3.363-16.836,10.087s-6.006,16.472-6.006,29.238C687.082,354.198,689.227,363.995,693.52,370.615z
		 M830.883,304.563h-28.494v90.581h-20.723v-90.581h-28.492v-16.562h77.709V304.563z M861.965,395.145h-19.311V288.002h19.311
		V395.145z M926.723,395.145h-19.625l-33.045-107.143h20.408l24.568,82.104l25.117-82.104h16.092L926.723,395.145z M991.713,395.145
		h-19.309V288.002h19.309V395.145z M1081.195,304.563h-28.492v90.581h-20.723v-90.581h-28.492v-16.562h77.707V304.563z
		 M1142.813,349.933v45.212h-20.486v-45.212l-36.498-61.931h23.391l25.432,44.191l24.332-44.191h18.523L1142.813,349.933z"/>
	<path class="st0" d="M508.668,303.229H490.3v76.139h16.092c8.634,0,15.959-3.245,21.978-9.733
		c6.017-6.488,9.026-16.142,9.026-28.964c0-10.466-2.629-19.321-7.889-26.57C524.249,306.853,517.302,303.229,508.668,303.229z"/>
	<path class="st0" d="M407.569,301.895c-16.537,0-24.804,13.318-24.804,39.953c0,12.926,2.106,22.724,6.319,29.395
		c4.211,6.672,10.244,10.009,18.093,10.009c6.958,0,12.846-2.878,17.661-8.635c4.814-5.755,7.222-16.194,7.222-31.319
		c0-12.296-1.989-21.938-5.965-28.924C422.116,305.387,415.941,301.895,407.569,301.895z"/>
	<path class="st0" d="M324.603,307.742c-3.35-2.904-8.033-4.356-14.05-4.356h-25.589v32.261h24.019
		c6.959,0,12.14-1.465,15.542-4.396c3.4-2.93,5.102-6.959,5.102-12.089C329.626,314.453,327.951,310.646,324.603,307.742z"/>
	<path class="st0" d="M209.767,304.014h-21.114v32.104h22.841c5.966,0,10.518-1.464,13.658-4.396
		c3.14-2.931,4.709-6.829,4.709-11.695c0-4.396-1.452-8.163-4.356-11.303C222.601,305.583,217.354,304.014,209.767,304.014z"/>
</g>
</svg>
