<?xml version="1.0" encoding="utf-8"?>
<!-- Generator: Adobe Illustrator 14.0.0, SVG Export Plug-In . SVG Version: 6.00 Build 43363)  -->
<!DOCTYPE svg PUBLIC "-//W3C//DTD SVG 1.1//EN" "http://www.w3.org/Graphics/SVG/1.1/DTD/svg11.dtd">
<svg version="1.1" xmlns="http://www.w3.org/2000/svg" xmlns:xlink="http://www.w3.org/1999/xlink" x="0px" y="0px" width="120px"
	 height="120px" viewBox="0 0 300 300" style="enable-background:new 0 0 300 300;" xml:space="preserve">
<style type="text/css">
<![CDATA[
	.st0{
		fill:none;
		stroke:#fcbe32;
		stroke-width:5;
		stroke-linecap:round;
		stroke-dashArray:100px;
		}
	.st1{fill:none;stroke:#fcbe32;stroke-width:5;stroke-dashArray:100px;}
	.st2{fill:none;stroke:#fcbe32;stroke-width:5;stroke-dashArray:400px;}
]]>
svg:hover .st0{animation: moveSt0 1.7s forwards}
svg:hover .st1{animation: moveSt0 1.7s forwards}
svg:hover .st2{animation: moveSt2 1.7s forwards}
@keyframes moveSt0{
	0%{stroke-dashoffset:100px;}
	100%{stroke-dashArray:100px;}
}
@keyframes moveSt2{
	0%{stroke-dashoffset:400px;}
	100%{stroke-dashArray:400px;}
}
</style>
<g id="layer">
	<circle class="st2" cx="229.565" cy="71.582" r="48.789"/>
	<circle class="st2" cx="170.962" cy="230.989" r="48.789"/>
	<circle class="st2" cx="83.58" cy="133.412" r="48.788"/>
	<circle class="st2" cx="145.459" cy="38.428" r="18.205"/>
	<circle class="st2" cx="40.579" cy="38.428" r="18.205"/>
	<circle class="st2" cx="39.851" cy="211.328" r="18.205"/>
	<circle class="st2" cx="79.699" cy="249.193" r="18.205"/>
	<circle class="st2" cx="260.149" cy="174.918" r="18.205"/>
	<line class="st2" x1="46.47" y1="55.652" x2="61.494" y2="89.898"/>
	<line class="st2" x1="163.664" y1="44.981" x2="184.7" y2="52.387"/>
	<line class="st2" x1="127.255" y1="111.651" x2="187.33" y2="89.898"/>
	<line class="st2" x1="211.066" y1="116.737" x2="188.787" y2="182.2"/>
	<line class="st2" x1="116.164" y1="169.722" x2="140.2" y2="193.123"/>
	<line class="st2" x1="246.313" y1="182.2" x2="212.816" y2="205.908"/>
	<line class="st2" x1="61.494" y1="176.925" x2="49.79" y2="196.079"/>
	<line class="st2" x1="97.903" y1="245.961" x2="123.178" y2="240.879"/>
</g>
<g id="person">
	<g>
		<circle class="st1" cx="82.794" cy="117.629" r="14.647"/>
		<path class="st0" d="M58.238,160.206c0,0-0.481-19.5,9.909-24.03c0,0,17.865,11.651,29.294,0c0,0,9.641,6.554,9.971,24.03"/>
	</g>
	<g>
		<circle class="st1" cx="171.115" cy="215.739" r="14.646"/>
		<path class="st0" d="M146.56,258.315c0,0-0.481-19.499,9.909-24.03c0,0,17.865,11.651,29.293,0c0,0,9.642,6.554,9.973,24.03"/>
	</g>
	<g>
		<circle class="st1" cx="229.718" cy="56.332" r="14.646"/>
		<path class="st0" d="M205.162,98.909c0,0-0.481-19.5,9.909-24.03c0,0,17.866,11.65,29.293,0c0,0,9.642,6.554,9.973,24.03"/>
	</g>
</g>
</svg>
